<svg width="125" height="18" viewBox="0 0 125 18" fill="none" xmlns="http://www.w3.org/2000/svg">
<path d="M0.26598 17V4.45455H4.06392V6.75781H4.20277C4.46413 5.9955 4.90518 5.39382 5.52592 4.95277C6.14666 4.51172 6.88719 4.29119 7.74751 4.29119C8.61873 4.29119 9.3647 4.51444 9.98544 4.96094C10.6062 5.40743 11.0009 6.00639 11.1697 6.75781H11.3004C11.5346 6.01184 11.992 5.4156 12.6726 4.96911C13.3532 4.51716 14.1564 4.29119 15.082 4.29119C16.2691 4.29119 17.2328 4.67235 17.9734 5.43466C18.7139 6.19152 19.0842 7.23153 19.0842 8.55469V17H15.0902V9.46946C15.0902 8.84328 14.9296 8.36683 14.6083 8.04013C14.2871 7.70798 13.8705 7.5419 13.3587 7.5419C12.8087 7.5419 12.3758 7.72159 12.06 8.08097C11.7496 8.4349 11.5945 8.91134 11.5945 9.5103V17H7.75568V9.42862C7.75568 8.846 7.59778 8.38589 7.28196 8.0483C6.96615 7.7107 6.5496 7.5419 6.03232 7.5419C5.68383 7.5419 5.37618 7.6263 5.10938 7.7951C4.84257 7.95845 4.63293 8.19259 4.48047 8.49751C4.33345 8.80244 4.25994 9.16181 4.25994 9.57564V17H0.26598ZM26.9551 17.2369C25.6374 17.2369 24.5048 16.9673 23.5574 16.4283C22.6154 15.8838 21.8885 15.1269 21.3766 14.1577C20.8703 13.183 20.6171 12.0531 20.6171 10.7681C20.6171 9.47763 20.8703 8.34777 21.3766 7.37855C21.8885 6.40388 22.6154 5.64702 23.5574 5.10795C24.5048 4.56345 25.6374 4.29119 26.9551 4.29119C28.2728 4.29119 29.4027 4.56345 30.3447 5.10795C31.2921 5.64702 32.0191 6.40388 32.5254 7.37855C33.0373 8.34777 33.2932 9.47763 33.2932 10.7681C33.2932 12.0531 33.0373 13.183 32.5254 14.1577C32.0191 15.1269 31.2921 15.8838 30.3447 16.4283C29.4027 16.9673 28.2728 17.2369 26.9551 17.2369ZM26.9796 14.223C27.4588 14.223 27.8645 14.076 28.1966 13.782C28.5288 13.4879 28.782 13.0795 28.9562 12.5568C29.1359 12.0341 29.2257 11.4297 29.2257 10.7436C29.2257 10.0466 29.1359 9.43679 28.9562 8.91406C28.782 8.39134 28.5288 7.98295 28.1966 7.68892C27.8645 7.39489 27.4588 7.24787 26.9796 7.24787C26.4841 7.24787 26.0649 7.39489 25.7218 7.68892C25.3842 7.98295 25.1256 8.39134 24.9459 8.91406C24.7717 9.43679 24.6845 10.0466 24.6845 10.7436C24.6845 11.4297 24.7717 12.0341 24.9459 12.5568C25.1256 13.0795 25.3842 13.4879 25.7218 13.782C26.0649 14.076 26.4841 14.223 26.9796 14.223ZM40.7354 17.2369C39.4177 17.2369 38.2851 16.9673 37.3376 16.4283C36.3956 15.8838 35.6687 15.1269 35.1569 14.1577C34.6505 13.183 34.3973 12.0531 34.3973 10.7681C34.3973 9.47763 34.6505 8.34777 35.1569 7.37855C35.6687 6.40388 36.3956 5.64702 37.3376 5.10795C38.2851 4.56345 39.4177 4.29119 40.7354 4.29119C42.0531 4.29119 43.1829 4.56345 44.1249 5.10795C45.0724 5.64702 45.7993 6.40388 46.3057 7.37855C46.8175 8.34777 47.0734 9.47763 47.0734 10.7681C47.0734 12.0531 46.8175 13.183 46.3057 14.1577C45.7993 15.1269 45.0724 15.8838 44.1249 16.4283C43.1829 16.9673 42.0531 17.2369 40.7354 17.2369ZM40.7599 14.223C41.239 14.223 41.6447 14.076 41.9768 13.782C42.309 13.4879 42.5622 13.0795 42.7364 12.5568C42.9161 12.0341 43.006 11.4297 43.006 10.7436C43.006 10.0466 42.9161 9.43679 42.7364 8.91406C42.5622 8.39134 42.309 7.98295 41.9768 7.68892C41.6447 7.39489 41.239 7.24787 40.7599 7.24787C40.2644 7.24787 39.8451 7.39489 39.5021 7.68892C39.1645 7.98295 38.9058 8.39134 38.7261 8.91406C38.5519 9.43679 38.4648 10.0466 38.4648 10.7436C38.4648 11.4297 38.5519 12.0341 38.7261 12.5568C38.9058 13.0795 39.1645 13.4879 39.5021 13.782C39.8451 14.076 40.2644 14.223 40.7599 14.223ZM53.2414 17.1797C52.3158 17.1797 51.4745 16.9401 50.7177 16.4609C49.9608 15.9818 49.3564 15.263 48.9044 14.3047C48.4525 13.3464 48.2265 12.1566 48.2265 10.7354C48.2265 9.25982 48.4607 8.04557 48.9289 7.09268C49.3972 6.1398 50.0098 5.43466 50.7667 4.97727C51.529 4.51989 52.3485 4.29119 53.2251 4.29119C53.884 4.29119 54.4475 4.40554 54.9158 4.63423C55.3841 4.85748 55.7707 5.14607 56.0756 5.5C56.3805 5.85393 56.6119 6.22147 56.7699 6.60263H56.8515V0.272727H60.8455V17H56.8924V14.9663H56.7699C56.6011 15.3529 56.3615 15.715 56.0511 16.0526C55.7407 16.3902 55.3514 16.6624 54.8831 16.8693C54.4203 17.0762 53.8731 17.1797 53.2414 17.1797ZM54.6299 14.0678C55.1146 14.0678 55.5284 13.9317 55.8714 13.6594C56.2145 13.3817 56.4785 12.9924 56.6637 12.4915C56.8488 11.9905 56.9414 11.4025 56.9414 10.7273C56.9414 10.0412 56.8488 9.4504 56.6637 8.9549C56.484 8.4594 56.2199 8.07824 55.8714 7.81143C55.5284 7.54463 55.1146 7.41122 54.6299 7.41122C54.1344 7.41122 53.7152 7.54735 53.3721 7.8196C53.0291 8.09186 52.7677 8.47573 52.588 8.97124C52.4138 9.46674 52.3267 10.0521 52.3267 10.7273C52.3267 11.4025 52.4165 11.9905 52.5962 12.4915C52.7759 12.9924 53.0345 13.3817 53.3721 13.6594C53.7152 13.9317 54.1344 14.0678 54.6299 14.0678ZM62.9113 17V0.272727H66.9053V6.60263H66.987C67.1503 6.22147 67.3817 5.85393 67.6812 5.5C67.9861 5.14607 68.3727 4.85748 68.841 4.63423C69.3147 4.40554 69.881 4.29119 70.5399 4.29119C71.4111 4.29119 72.2251 4.51989 72.982 4.97727C73.7443 5.43466 74.3596 6.1398 74.8279 7.09268C75.2962 8.04557 75.5303 9.25982 75.5303 10.7354C75.5303 12.1566 75.3043 13.3464 74.8524 14.3047C74.4059 15.263 73.8015 15.9818 73.0392 16.4609C72.2823 16.9401 71.441 17.1797 70.5154 17.1797C69.8838 17.1797 69.3365 17.0762 68.8737 16.8693C68.4109 16.6624 68.0215 16.3902 67.7057 16.0526C67.3954 15.715 67.1558 15.3529 66.987 14.9663H66.8645V17H62.9113ZM66.8236 10.7273C66.8236 11.4025 66.9135 11.9905 67.0931 12.4915C67.2783 12.9924 67.5424 13.3817 67.8854 13.6594C68.2339 13.9317 68.6504 14.0678 69.1351 14.0678C69.6251 14.0678 70.0417 13.9317 70.3847 13.6594C70.7277 13.3817 70.9864 12.9924 71.1606 12.4915C71.3403 11.9905 71.4302 11.4025 71.4302 10.7273C71.4302 10.0521 71.3403 9.46674 71.1606 8.97124C70.9864 8.47573 70.7277 8.09186 70.3847 7.8196C70.0471 7.54735 69.6306 7.41122 69.1351 7.41122C68.645 7.41122 68.2284 7.54463 67.8854 7.81143C67.5424 8.07824 67.2783 8.4594 67.0931 8.9549C66.9135 9.4504 66.8236 10.0412 66.8236 10.7273ZM83.0194 17.2369C81.7017 17.2369 80.5691 16.9673 79.6217 16.4283C78.6797 15.8838 77.9528 15.1269 77.4409 14.1577C76.9345 13.183 76.6814 12.0531 76.6814 10.7681C76.6814 9.47763 76.9345 8.34777 77.4409 7.37855C77.9528 6.40388 78.6797 5.64702 79.6217 5.10795C80.5691 4.56345 81.7017 4.29119 83.0194 4.29119C84.3371 4.29119 85.467 4.56345 86.409 5.10795C87.3564 5.64702 88.0833 6.40388 88.5897 7.37855C89.1016 8.34777 89.3575 9.47763 89.3575 10.7681C89.3575 12.0531 89.1016 13.183 88.5897 14.1577C88.0833 15.1269 87.3564 15.8838 86.409 16.4283C85.467 16.9673 84.3371 17.2369 83.0194 17.2369ZM83.0439 14.223C83.5231 14.223 83.9287 14.076 84.2609 13.782C84.593 13.4879 84.8462 13.0795 85.0205 12.5568C85.2002 12.0341 85.29 11.4297 85.29 10.7436C85.29 10.0466 85.2002 9.43679 85.0205 8.91406C84.8462 8.39134 84.593 7.98295 84.2609 7.68892C83.9287 7.39489 83.5231 7.24787 83.0439 7.24787C82.5484 7.24787 82.1292 7.39489 81.7861 7.68892C81.4485 7.98295 81.1899 8.39134 81.0102 8.91406C80.8359 9.43679 80.7488 10.0466 80.7488 10.7436C80.7488 11.4297 80.8359 12.0341 81.0102 12.5568C81.1899 13.0795 81.4485 13.4879 81.7861 13.782C82.1292 14.076 82.5484 14.223 83.0439 14.223ZM94.4801 17.2124C93.6796 17.2124 92.969 17.079 92.3483 16.8121C91.733 16.5399 91.2457 16.1315 90.8863 15.587C90.5324 15.0371 90.3554 14.3482 90.3554 13.5206C90.3554 12.8236 90.4779 12.2356 90.723 11.7564C90.968 11.2772 91.3056 10.8879 91.7357 10.5884C92.1659 10.2889 92.6614 10.063 93.2222 9.91051C93.7831 9.7526 94.382 9.64642 95.0191 9.59197C95.7324 9.52663 96.3069 9.45857 96.7425 9.38778C97.1781 9.31155 97.4939 9.20537 97.6899 9.06925C97.8914 8.92767 97.9921 8.72893 97.9921 8.47301V8.43217C97.9921 8.0129 97.8478 7.68892 97.5592 7.46023C97.2707 7.23153 96.8813 7.11719 96.3913 7.11719C95.8631 7.11719 95.4384 7.23153 95.1171 7.46023C94.7959 7.68892 94.5917 8.00473 94.5046 8.40767L90.821 8.27699C90.9299 7.51468 91.2103 6.83404 91.6622 6.23509C92.1196 5.63068 92.7458 5.15696 93.5408 4.81392C94.3412 4.46544 95.3023 4.29119 96.4239 4.29119C97.2244 4.29119 97.9622 4.38648 98.6374 4.57706C99.3126 4.76219 99.9006 5.03445 100.402 5.39382C100.903 5.74775 101.289 6.18336 101.561 6.70064C101.839 7.21792 101.978 7.80871 101.978 8.47301V17H98.2208V15.2521H98.1228C97.8996 15.6768 97.6137 16.0362 97.2652 16.3303C96.9222 16.6243 96.5165 16.8448 96.0482 16.9918C95.5854 17.1388 95.0627 17.2124 94.4801 17.2124ZM95.7134 14.5987C96.1435 14.5987 96.5301 14.5116 96.8732 14.3374C97.2217 14.1631 97.4993 13.9235 97.7063 13.6186C97.9132 13.3082 98.0166 12.9489 98.0166 12.5405V11.348C97.9023 11.4079 97.7634 11.4624 97.6001 11.5114C97.4422 11.5604 97.2679 11.6067 97.0774 11.6502C96.8868 11.6938 96.6908 11.7319 96.4893 11.7646C96.2878 11.7972 96.0945 11.8272 95.9094 11.8544C95.5337 11.9143 95.2124 12.0069 94.9456 12.1321C94.6842 12.2573 94.4828 12.4207 94.3412 12.6222C94.2051 12.8182 94.137 13.0523 94.137 13.3246C94.137 13.7384 94.284 14.0542 94.5781 14.272C94.8775 14.4898 95.256 14.5987 95.7134 14.5987ZM103.96 17V4.45455H107.84V6.74148H107.97C108.199 5.91383 108.572 5.29853 109.089 4.8956C109.607 4.48722 110.208 4.28303 110.894 4.28303C111.079 4.28303 111.27 4.29664 111.466 4.32386C111.662 4.34564 111.845 4.38104 112.013 4.43004V7.90128C111.823 7.83594 111.572 7.78421 111.262 7.74609C110.957 7.70798 110.685 7.68892 110.445 7.68892C109.971 7.68892 109.544 7.7951 109.163 8.00746C108.787 8.21437 108.49 8.50568 108.273 8.88139C108.06 9.25166 107.954 9.68726 107.954 10.1882V17H103.96ZM117.111 17.1797C116.186 17.1797 115.344 16.9401 114.588 16.4609C113.831 15.9818 113.226 15.263 112.774 14.3047C112.322 13.3464 112.096 12.1566 112.096 10.7354C112.096 9.25982 112.331 8.04557 112.799 7.09268C113.267 6.1398 113.88 5.43466 114.637 4.97727C115.399 4.51989 116.218 4.29119 117.095 4.29119C117.754 4.29119 118.317 4.40554 118.786 4.63423C119.254 4.85748 119.641 5.14607 119.946 5.5C120.25 5.85393 120.482 6.22147 120.64 6.60263H120.721V0.272727H124.715V17H120.762V14.9663H120.64C120.471 15.3529 120.231 15.715 119.921 16.0526C119.611 16.3902 119.221 16.6624 118.753 16.8693C118.29 17.0762 117.743 17.1797 117.111 17.1797ZM118.5 14.0678C118.984 14.0678 119.398 13.9317 119.741 13.6594C120.084 13.3817 120.348 12.9924 120.534 12.4915C120.719 11.9905 120.811 11.4025 120.811 10.7273C120.811 10.0412 120.719 9.4504 120.534 8.9549C120.354 8.4594 120.09 8.07824 119.741 7.81143C119.398 7.54463 118.984 7.41122 118.5 7.41122C118.004 7.41122 117.585 7.54735 117.242 7.8196C116.899 8.09186 116.638 8.47573 116.458 8.97124C116.284 9.46674 116.197 10.0521 116.197 10.7273C116.197 11.4025 116.286 11.9905 116.466 12.4915C116.646 12.9924 116.904 13.3817 117.242 13.6594C117.585 13.9317 118.004 14.0678 118.5 14.0678Z" fill="white"/>
</svg>
