<svg width="190" height="48" viewBox="0 0 190 48" fill="none" xmlns="http://www.w3.org/2000/svg">
<path d="M11.266 32V19.4545H15.0639V21.7578H15.2028C15.4641 20.9955 15.9052 20.3938 16.5259 19.9528C17.1467 19.5117 17.8872 19.2912 18.7475 19.2912C19.6187 19.2912 20.3647 19.5144 20.9854 19.9609C21.6062 20.4074 22.0009 21.0064 22.1697 21.7578H22.3004C22.5346 21.0118 22.992 20.4156 23.6726 19.9691C24.3532 19.5172 25.1564 19.2912 26.082 19.2912C27.2691 19.2912 28.2328 19.6723 28.9734 20.4347C29.7139 21.1915 30.0842 22.2315 30.0842 23.5547V32H26.0902V24.4695C26.0902 23.8433 25.9296 23.3668 25.6083 23.0401C25.2871 22.708 24.8705 22.5419 24.3587 22.5419C23.8087 22.5419 23.3758 22.7216 23.06 23.081C22.7496 23.4349 22.5945 23.9113 22.5945 24.5103V32H18.7557V24.4286C18.7557 23.846 18.5978 23.3859 18.282 23.0483C17.9661 22.7107 17.5496 22.5419 17.0323 22.5419C16.6838 22.5419 16.3762 22.6263 16.1094 22.7951C15.8426 22.9585 15.6329 23.1926 15.4805 23.4975C15.3335 23.8024 15.2599 24.1618 15.2599 24.5756V32H11.266ZM37.9551 32.2369C36.6374 32.2369 35.5048 31.9673 34.5574 31.4283C33.6154 30.8838 32.8885 30.1269 32.3766 29.1577C31.8703 28.183 31.6171 27.0531 31.6171 25.7681C31.6171 24.4776 31.8703 23.3478 32.3766 22.3786C32.8885 21.4039 33.6154 20.647 34.5574 20.108C35.5048 19.5634 36.6374 19.2912 37.9551 19.2912C39.2728 19.2912 40.4027 19.5634 41.3447 20.108C42.2921 20.647 43.0191 21.4039 43.5254 22.3786C44.0373 23.3478 44.2932 24.4776 44.2932 25.7681C44.2932 27.0531 44.0373 28.183 43.5254 29.1577C43.0191 30.1269 42.2921 30.8838 41.3447 31.4283C40.4027 31.9673 39.2728 32.2369 37.9551 32.2369ZM37.9796 29.223C38.4588 29.223 38.8645 29.076 39.1966 28.782C39.5288 28.4879 39.782 28.0795 39.9562 27.5568C40.1359 27.0341 40.2257 26.4297 40.2257 25.7436C40.2257 25.0466 40.1359 24.4368 39.9562 23.9141C39.782 23.3913 39.5288 22.983 39.1966 22.6889C38.8645 22.3949 38.4588 22.2479 37.9796 22.2479C37.4841 22.2479 37.0649 22.3949 36.7218 22.6889C36.3842 22.983 36.1256 23.3913 35.9459 23.9141C35.7717 24.4368 35.6845 25.0466 35.6845 25.7436C35.6845 26.4297 35.7717 27.0341 35.9459 27.5568C36.1256 28.0795 36.3842 28.4879 36.7218 28.782C37.0649 29.076 37.4841 29.223 37.9796 29.223ZM51.7354 32.2369C50.4177 32.2369 49.2851 31.9673 48.3376 31.4283C47.3956 30.8838 46.6687 30.1269 46.1569 29.1577C45.6505 28.183 45.3973 27.0531 45.3973 25.7681C45.3973 24.4776 45.6505 23.3478 46.1569 22.3786C46.6687 21.4039 47.3956 20.647 48.3376 20.108C49.2851 19.5634 50.4177 19.2912 51.7354 19.2912C53.0531 19.2912 54.1829 19.5634 55.1249 20.108C56.0724 20.647 56.7993 21.4039 57.3057 22.3786C57.8175 23.3478 58.0734 24.4776 58.0734 25.7681C58.0734 27.0531 57.8175 28.183 57.3057 29.1577C56.7993 30.1269 56.0724 30.8838 55.1249 31.4283C54.1829 31.9673 53.0531 32.2369 51.7354 32.2369ZM51.7599 29.223C52.239 29.223 52.6447 29.076 52.9768 28.782C53.309 28.4879 53.5622 28.0795 53.7364 27.5568C53.9161 27.0341 54.006 26.4297 54.006 25.7436C54.006 25.0466 53.9161 24.4368 53.7364 23.9141C53.5622 23.3913 53.309 22.983 52.9768 22.6889C52.6447 22.3949 52.239 22.2479 51.7599 22.2479C51.2644 22.2479 50.8451 22.3949 50.5021 22.6889C50.1645 22.983 49.9058 23.3913 49.7261 23.9141C49.5519 24.4368 49.4648 25.0466 49.4648 25.7436C49.4648 26.4297 49.5519 27.0341 49.7261 27.5568C49.9058 28.0795 50.1645 28.4879 50.5021 28.782C50.8451 29.076 51.2644 29.223 51.7599 29.223ZM64.2414 32.1797C63.3158 32.1797 62.4745 31.9401 61.7177 31.4609C60.9608 30.9818 60.3564 30.263 59.9044 29.3047C59.4525 28.3464 59.2265 27.1566 59.2265 25.7354C59.2265 24.2598 59.4607 23.0456 59.9289 22.0927C60.3972 21.1398 61.0098 20.4347 61.7667 19.9773C62.529 19.5199 63.3485 19.2912 64.2251 19.2912C64.884 19.2912 65.4475 19.4055 65.9158 19.6342C66.3841 19.8575 66.7707 20.1461 67.0756 20.5C67.3805 20.8539 67.6119 21.2215 67.7699 21.6026H67.8515V15.2727H71.8455V32H67.8924V29.9663H67.7699C67.6011 30.3529 67.3615 30.715 67.0511 31.0526C66.7407 31.3902 66.3514 31.6624 65.8831 31.8693C65.4203 32.0762 64.8731 32.1797 64.2414 32.1797ZM65.6299 29.0678C66.1146 29.0678 66.5284 28.9317 66.8714 28.6594C67.2145 28.3817 67.4785 27.9924 67.6637 27.4915C67.8488 26.9905 67.9414 26.4025 67.9414 25.7273C67.9414 25.0412 67.8488 24.4504 67.6637 23.9549C67.484 23.4594 67.2199 23.0782 66.8714 22.8114C66.5284 22.5446 66.1146 22.4112 65.6299 22.4112C65.1344 22.4112 64.7152 22.5473 64.3721 22.8196C64.0291 23.0919 63.7677 23.4757 63.588 23.9712C63.4138 24.4667 63.3267 25.0521 63.3267 25.7273C63.3267 26.4025 63.4165 26.9905 63.5962 27.4915C63.7759 27.9924 64.0345 28.3817 64.3721 28.6594C64.7152 28.9317 65.1344 29.0678 65.6299 29.0678ZM73.9113 32V15.2727H77.9053V21.6026H77.987C78.1503 21.2215 78.3817 20.8539 78.6812 20.5C78.9861 20.1461 79.3727 19.8575 79.841 19.6342C80.3147 19.4055 80.881 19.2912 81.5399 19.2912C82.4111 19.2912 83.2251 19.5199 83.982 19.9773C84.7443 20.4347 85.3596 21.1398 85.8279 22.0927C86.2962 23.0456 86.5303 24.2598 86.5303 25.7354C86.5303 27.1566 86.3043 28.3464 85.8524 29.3047C85.4059 30.263 84.8015 30.9818 84.0392 31.4609C83.2823 31.9401 82.441 32.1797 81.5154 32.1797C80.8838 32.1797 80.3365 32.0762 79.8737 31.8693C79.4109 31.6624 79.0215 31.3902 78.7057 31.0526C78.3954 30.715 78.1558 30.3529 77.987 29.9663H77.8645V32H73.9113ZM77.8236 25.7273C77.8236 26.4025 77.9135 26.9905 78.0931 27.4915C78.2783 27.9924 78.5424 28.3817 78.8854 28.6594C79.2339 28.9317 79.6504 29.0678 80.1351 29.0678C80.6251 29.0678 81.0417 28.9317 81.3847 28.6594C81.7277 28.3817 81.9864 27.9924 82.1606 27.4915C82.3403 26.9905 82.4302 26.4025 82.4302 25.7273C82.4302 25.0521 82.3403 24.4667 82.1606 23.9712C81.9864 23.4757 81.7277 23.0919 81.3847 22.8196C81.0471 22.5473 80.6306 22.4112 80.1351 22.4112C79.645 22.4112 79.2284 22.5446 78.8854 22.8114C78.5424 23.0782 78.2783 23.4594 78.0931 23.9549C77.9135 24.4504 77.8236 25.0412 77.8236 25.7273ZM94.0194 32.2369C92.7017 32.2369 91.5691 31.9673 90.6217 31.4283C89.6797 30.8838 88.9528 30.1269 88.4409 29.1577C87.9345 28.183 87.6814 27.0531 87.6814 25.7681C87.6814 24.4776 87.9345 23.3478 88.4409 22.3786C88.9528 21.4039 89.6797 20.647 90.6217 20.108C91.5691 19.5634 92.7017 19.2912 94.0194 19.2912C95.3371 19.2912 96.467 19.5634 97.409 20.108C98.3564 20.647 99.0833 21.4039 99.5897 22.3786C100.102 23.3478 100.357 24.4776 100.357 25.7681C100.357 27.0531 100.102 28.183 99.5897 29.1577C99.0833 30.1269 98.3564 30.8838 97.409 31.4283C96.467 31.9673 95.3371 32.2369 94.0194 32.2369ZM94.0439 29.223C94.5231 29.223 94.9287 29.076 95.2609 28.782C95.593 28.4879 95.8462 28.0795 96.0205 27.5568C96.2002 27.0341 96.29 26.4297 96.29 25.7436C96.29 25.0466 96.2002 24.4368 96.0205 23.9141C95.8462 23.3913 95.593 22.983 95.2609 22.6889C94.9287 22.3949 94.5231 22.2479 94.0439 22.2479C93.5484 22.2479 93.1292 22.3949 92.7861 22.6889C92.4485 22.983 92.1899 23.3913 92.0102 23.9141C91.8359 24.4368 91.7488 25.0466 91.7488 25.7436C91.7488 26.4297 91.8359 27.0341 92.0102 27.5568C92.1899 28.0795 92.4485 28.4879 92.7861 28.782C93.1292 29.076 93.5484 29.223 94.0439 29.223ZM105.48 32.2124C104.68 32.2124 103.969 32.079 103.348 31.8121C102.733 31.5399 102.246 31.1315 101.886 30.587C101.532 30.0371 101.355 29.3482 101.355 28.5206C101.355 27.8236 101.478 27.2356 101.723 26.7564C101.968 26.2772 102.306 25.8879 102.736 25.5884C103.166 25.2889 103.661 25.063 104.222 24.9105C104.783 24.7526 105.382 24.6464 106.019 24.592C106.732 24.5266 107.307 24.4586 107.742 24.3878C108.178 24.3116 108.494 24.2054 108.69 24.0692C108.891 23.9277 108.992 23.7289 108.992 23.473V23.4322C108.992 23.0129 108.848 22.6889 108.559 22.4602C108.271 22.2315 107.881 22.1172 107.391 22.1172C106.863 22.1172 106.438 22.2315 106.117 22.4602C105.796 22.6889 105.592 23.0047 105.505 23.4077L101.821 23.277C101.93 22.5147 102.21 21.834 102.662 21.2351C103.12 20.6307 103.746 20.157 104.541 19.8139C105.341 19.4654 106.302 19.2912 107.424 19.2912C108.224 19.2912 108.962 19.3865 109.637 19.5771C110.313 19.7622 110.901 20.0344 111.402 20.3938C111.903 20.7478 112.289 21.1834 112.561 21.7006C112.839 22.2179 112.978 22.8087 112.978 23.473V32H109.221V30.2521H109.123C108.9 30.6768 108.614 31.0362 108.265 31.3303C107.922 31.6243 107.517 31.8448 107.048 31.9918C106.585 32.1388 106.063 32.2124 105.48 32.2124ZM106.713 29.5987C107.144 29.5987 107.53 29.5116 107.873 29.3374C108.222 29.1631 108.499 28.9235 108.706 28.6186C108.913 28.3082 109.017 27.9489 109.017 27.5405V26.348C108.902 26.4079 108.763 26.4624 108.6 26.5114C108.442 26.5604 108.268 26.6067 108.077 26.6502C107.887 26.6938 107.691 26.7319 107.489 26.7646C107.288 26.7972 107.095 26.8272 106.909 26.8544C106.534 26.9143 106.212 27.0069 105.946 27.1321C105.684 27.2573 105.483 27.4207 105.341 27.6222C105.205 27.8182 105.137 28.0523 105.137 28.3246C105.137 28.7384 105.284 29.0542 105.578 29.272C105.878 29.4898 106.256 29.5987 106.713 29.5987ZM114.96 32V19.4545H118.84V21.7415H118.97C119.199 20.9138 119.572 20.2985 120.089 19.8956C120.607 19.4872 121.208 19.283 121.894 19.283C122.079 19.283 122.27 19.2966 122.466 19.3239C122.662 19.3456 122.845 19.381 123.013 19.43V22.9013C122.823 22.8359 122.572 22.7842 122.262 22.7461C121.957 22.708 121.685 22.6889 121.445 22.6889C120.971 22.6889 120.544 22.7951 120.163 23.0075C119.787 23.2144 119.49 23.5057 119.273 23.8814C119.06 24.2517 118.954 24.6873 118.954 25.1882V32H114.96ZM128.111 32.1797C127.186 32.1797 126.344 31.9401 125.588 31.4609C124.831 30.9818 124.226 30.263 123.774 29.3047C123.322 28.3464 123.096 27.1566 123.096 25.7354C123.096 24.2598 123.331 23.0456 123.799 22.0927C124.267 21.1398 124.88 20.4347 125.637 19.9773C126.399 19.5199 127.218 19.2912 128.095 19.2912C128.754 19.2912 129.317 19.4055 129.786 19.6342C130.254 19.8575 130.641 20.1461 130.946 20.5C131.25 20.8539 131.482 21.2215 131.64 21.6026H131.721V15.2727H135.715V32H131.762V29.9663H131.64C131.471 30.3529 131.231 30.715 130.921 31.0526C130.611 31.3902 130.221 31.6624 129.753 31.8693C129.29 32.0762 128.743 32.1797 128.111 32.1797ZM129.5 29.0678C129.984 29.0678 130.398 28.9317 130.741 28.6594C131.084 28.3817 131.348 27.9924 131.534 27.4915C131.719 26.9905 131.811 26.4025 131.811 25.7273C131.811 25.0412 131.719 24.4504 131.534 23.9549C131.354 23.4594 131.09 23.0782 130.741 22.8114C130.398 22.5446 129.984 22.4112 129.5 22.4112C129.004 22.4112 128.585 22.5473 128.242 22.8196C127.899 23.0919 127.638 23.4757 127.458 23.9712C127.284 24.4667 127.197 25.0521 127.197 25.7273C127.197 26.4025 127.286 26.9905 127.466 27.4915C127.646 27.9924 127.904 28.3817 128.242 28.6594C128.585 28.9317 129.004 29.0678 129.5 29.0678Z" fill="#1E1E1E"/>
<rect x="141" y="16" width="39" height="16" rx="8" fill="#E52B39"/>
<path d="M149.717 28V20.7273H152.501C153.027 20.7273 153.464 20.8101 153.812 20.9759C154.162 21.1392 154.424 21.3629 154.597 21.647C154.772 21.9311 154.859 22.2531 154.859 22.6129C154.859 22.9089 154.803 23.1622 154.689 23.3729C154.575 23.5812 154.423 23.7505 154.231 23.8807C154.039 24.0109 153.825 24.1044 153.588 24.1612V24.2322C153.846 24.2464 154.094 24.3258 154.33 24.4702C154.569 24.6122 154.765 24.8134 154.916 25.0739C155.068 25.3343 155.143 25.6491 155.143 26.0185C155.143 26.3949 155.052 26.7334 154.87 27.0341C154.688 27.3324 154.413 27.5679 154.046 27.7408C153.679 27.9136 153.218 28 152.661 28H149.717ZM151.035 26.8991H152.452C152.93 26.8991 153.274 26.808 153.485 26.6257C153.698 26.4411 153.805 26.2043 153.805 25.9155C153.805 25.7 153.751 25.5059 153.645 25.3331C153.538 25.1579 153.387 25.0206 153.19 24.9212C152.994 24.8194 152.759 24.7685 152.487 24.7685H151.035V26.8991ZM151.035 23.8203H152.338C152.565 23.8203 152.77 23.7789 152.952 23.696C153.135 23.6108 153.278 23.4912 153.382 23.3374C153.489 23.1811 153.542 22.9964 153.542 22.7834C153.542 22.5017 153.442 22.2696 153.244 22.0874C153.047 21.9051 152.755 21.8139 152.366 21.8139H151.035V23.8203ZM158.848 28.1065C158.301 28.1065 157.828 27.9929 157.431 27.7656C157.035 27.536 156.731 27.2116 156.518 26.7926C156.305 26.3712 156.198 25.8752 156.198 25.3047C156.198 24.7436 156.305 24.2512 156.518 23.8274C156.733 23.4013 157.034 23.0698 157.42 22.8331C157.806 22.594 158.259 22.4744 158.78 22.4744C159.116 22.4744 159.433 22.5289 159.732 22.6378C160.032 22.7443 160.298 22.91 160.527 23.1349C160.759 23.3598 160.942 23.6463 161.074 23.9943C161.207 24.34 161.273 24.7519 161.273 25.2301V25.6243H156.802V24.7578H160.041C160.038 24.5116 159.985 24.2926 159.881 24.1009C159.777 23.9067 159.631 23.754 159.444 23.6428C159.259 23.5315 159.044 23.4759 158.798 23.4759C158.535 23.4759 158.304 23.5398 158.105 23.6676C157.906 23.7931 157.751 23.9588 157.64 24.1648C157.531 24.3684 157.476 24.5921 157.473 24.8359V25.5923C157.473 25.9096 157.531 26.1818 157.647 26.4091C157.763 26.634 157.925 26.8068 158.134 26.9276C158.342 27.0459 158.586 27.1051 158.865 27.1051C159.052 27.1051 159.222 27.0791 159.373 27.027C159.525 26.9725 159.656 26.8932 159.767 26.7891C159.879 26.6849 159.963 26.5559 160.019 26.402L161.22 26.5369C161.144 26.8542 161 27.1312 160.786 27.3679C160.576 27.6023 160.306 27.7846 159.977 27.9148C159.648 28.0426 159.271 28.1065 158.848 28.1065ZM165.284 22.5455V23.5398H162.149V22.5455H165.284ZM162.923 21.2386H164.208V26.3594C164.208 26.5322 164.234 26.6648 164.286 26.7571C164.341 26.8471 164.412 26.9086 164.499 26.9418C164.587 26.9749 164.684 26.9915 164.791 26.9915C164.871 26.9915 164.945 26.9856 165.011 26.9737C165.079 26.9619 165.132 26.9512 165.167 26.9418L165.384 27.9467C165.315 27.9704 165.217 27.9964 165.089 28.0249C164.963 28.0533 164.81 28.0698 164.627 28.0746C164.305 28.084 164.015 28.0355 163.757 27.929C163.499 27.8201 163.294 27.652 163.143 27.4247C162.994 27.1974 162.92 26.9134 162.923 26.5724V21.2386ZM168.129 28.1101C167.783 28.1101 167.472 28.0485 167.195 27.9254C166.92 27.8 166.703 27.6153 166.542 27.3714C166.383 27.1276 166.304 26.8269 166.304 26.4695C166.304 26.1617 166.36 25.9072 166.474 25.706C166.588 25.5047 166.743 25.3438 166.939 25.223C167.136 25.1023 167.357 25.0111 167.603 24.9496C167.852 24.8857 168.109 24.8395 168.374 24.8111C168.694 24.7779 168.953 24.7483 169.152 24.7223C169.351 24.6939 169.495 24.6513 169.585 24.5945C169.677 24.5353 169.723 24.4441 169.723 24.321V24.2997C169.723 24.0322 169.644 23.825 169.485 23.6783C169.327 23.5315 169.098 23.4581 168.8 23.4581C168.485 23.4581 168.235 23.5268 168.051 23.6641C167.869 23.8014 167.745 23.9635 167.681 24.1506L166.481 23.9801C166.576 23.6487 166.732 23.3717 166.95 23.1491C167.168 22.9242 167.434 22.7562 167.749 22.6449C168.064 22.5312 168.412 22.4744 168.793 22.4744C169.056 22.4744 169.317 22.5052 169.578 22.5668C169.838 22.6283 170.076 22.7301 170.292 22.8722C170.507 23.0118 170.68 23.2024 170.81 23.4439C170.943 23.6854 171.009 23.9872 171.009 24.3494V28H169.773V27.2507H169.731C169.652 27.4022 169.542 27.5443 169.4 27.6768C169.261 27.8071 169.084 27.9124 168.871 27.9929C168.66 28.071 168.413 28.1101 168.129 28.1101ZM168.463 27.1655C168.721 27.1655 168.945 27.1146 169.134 27.0128C169.323 26.9086 169.469 26.7713 169.571 26.6009C169.675 26.4304 169.727 26.2446 169.727 26.0433V25.4006C169.687 25.4337 169.618 25.4645 169.521 25.4929C169.426 25.5213 169.32 25.5462 169.201 25.5675C169.083 25.5888 168.966 25.6077 168.85 25.6243C168.734 25.6409 168.633 25.6551 168.548 25.6669C168.356 25.6929 168.185 25.7356 168.033 25.7947C167.882 25.8539 167.762 25.9368 167.674 26.0433C167.587 26.1475 167.543 26.2824 167.543 26.4482C167.543 26.6849 167.629 26.8636 167.802 26.9844C167.975 27.1051 168.195 27.1655 168.463 27.1655Z" fill="white"/>
</svg>
